<?xml version="1.0" encoding="utf-8"?>
<!-- Generator: Adobe Illustrator 24.0.3, SVG Export Plug-In . SVG Version: 6.00 Build 0)  -->
<svg version="1.1" id="Layer_1" xmlns="http://www.w3.org/2000/svg" xmlns:xlink="http://www.w3.org/1999/xlink" x="0px" y="0px"
	 viewBox="0 0 595.2 83.4" style="enable-background:new 0 0 595.2 83.4;" xml:space="preserve">
<style type="text/css">
	.st0{fill:none;stroke:#231F20;stroke-miterlimit:10;}
	.st1{fill:#231F20;}
	.st2{font-family:'MyriadPro-Regular';}
	.st3{font-size:12px;}
	.st4{fill:#231F20;stroke:#D21E47;stroke-miterlimit:10;}
	.st5{fill:none;stroke:#D21E47;stroke-miterlimit:10;}
	.st6{fill:#D21E47;}
</style>
<g>
	<g>
		<line class="st0" x1="48" y1="39.5" x2="201.2" y2="39.5"/>
		<g>
			<polygon class="st1" points="195.3,42.6 194.9,41.7 201.1,39.5 194.9,37.2 195.3,36.3 204,39.5 			"/>
		</g>
	</g>
</g>
<line class="st0" x1="69.7" y1="34.6" x2="69.7" y2="44.3"/>
<line class="st0" x1="124" y1="34.6" x2="124" y2="44.3"/>
<line class="st0" x1="178.4" y1="34.6" x2="178.4" y2="44.3"/>
<text transform="matrix(1 0 0 1 58.037 31.3044)" class="st1 st2 st3">2017</text>
<text transform="matrix(1 0 0 1 113.2003 31.3044)" class="st1 st2 st3">2018</text>
<text transform="matrix(1 0 0 1 165.3631 31.3044)" class="st1 st2 st3">2019</text>
<g>
	<g>
		<line class="st0" x1="217" y1="39.5" x2="370.2" y2="39.5"/>
		<g>
			<polygon class="st1" points="364.3,42.6 363.9,41.7 370.1,39.5 363.9,37.2 364.3,36.3 373,39.5 			"/>
		</g>
	</g>
</g>
<line class="st0" x1="238.7" y1="34.6" x2="238.7" y2="44.3"/>
<line class="st0" x1="293" y1="34.6" x2="293" y2="44.3"/>
<line class="st0" x1="347.4" y1="34.6" x2="347.4" y2="44.3"/>
<text transform="matrix(1 0 0 1 227.037 31.3044)" class="st1 st2 st3">2017</text>
<text transform="matrix(1 0 0 1 282.2003 31.3044)" class="st1 st2 st3">2018</text>
<text transform="matrix(1 0 0 1 334.3631 31.3044)" class="st1 st2 st3">2019</text>
<g>
	<g>
		<line class="st0" x1="386" y1="39.5" x2="539.2" y2="39.5"/>
		<g>
			<polygon class="st1" points="533.3,42.6 532.9,41.7 539.1,39.5 532.9,37.2 533.3,36.3 542,39.5 			"/>
		</g>
	</g>
</g>
<line class="st0" x1="407.7" y1="34.6" x2="407.7" y2="44.3"/>
<line class="st0" x1="462" y1="34.6" x2="462" y2="44.3"/>
<line class="st0" x1="516.4" y1="34.6" x2="516.4" y2="44.3"/>
<text transform="matrix(1 0 0 1 396.037 31.3044)" class="st1 st2 st3">2017</text>
<text transform="matrix(1 0 0 1 451.2003 31.3044)" class="st1 st2 st3">2018</text>
<text transform="matrix(1 0 0 1 503.3631 31.3044)" class="st1 st2 st3">2019</text>
<line class="st4" x1="109.6" y1="13.1" x2="109.6" y2="51.7"/>
<line class="st4" x1="275.6" y1="13.1" x2="275.6" y2="51.7"/>
<line class="st4" x1="442.6" y1="13.1" x2="442.6" y2="51.7"/>
<g>
	<g>
		<line class="st5" x1="71.8" y1="47.5" x2="103.5" y2="47.5"/>
		<g>
			<polygon class="st6" points="77.8,50.7 78.1,49.7 71.9,47.5 78.1,45.3 77.8,44.3 69,47.5 			"/>
		</g>
	</g>
</g>
<g>
	<g>
		<line class="st5" x1="241.8" y1="47.5" x2="273.5" y2="47.5"/>
		<g>
			<polygon class="st6" points="247.8,50.7 248.1,49.7 241.9,47.5 248.1,45.3 247.8,44.3 239,47.5 			"/>
		</g>
	</g>
</g>
<g>
	<g>
		<line class="st5" x1="278" y1="47.5" x2="290.2" y2="47.5"/>
		<g>
			<polygon class="st6" points="284.3,50.7 283.9,49.7 290.1,47.5 283.9,45.3 284.3,44.3 293,47.5 			"/>
		</g>
	</g>
</g>
<g>
	<g>
		<line class="st5" x1="445.5" y1="47.5" x2="457.7" y2="47.5"/>
		<g>
			<polygon class="st6" points="451.8,50.7 451.4,49.7 457.6,47.5 451.4,45.3 451.8,44.3 460.5,47.5 			"/>
		</g>
	</g>
</g>
<text transform="matrix(1 0 0 1 62.48 69.0063)" class="st1 st2 st3">floor_date(x, unit=”year”)</text>
<text transform="matrix(1 0 0 1 229.3471 69.0063)" class="st1 st2 st3">round_date(x, unit=”year”)</text>
<text transform="matrix(1 0 0 1 396.48 69.0063)" class="st1 st2 st3">ceiling_date(x, unit=”year”)</text>
</svg>
