<?xml version="1.0" encoding="utf-8"?>
<!-- Generator: Adobe Illustrator 22.0.1, SVG Export Plug-In . SVG Version: 6.00 Build 0)  -->
<svg version="1.1" id="Layer_1" xmlns="http://www.w3.org/2000/svg" xmlns:xlink="http://www.w3.org/1999/xlink" x="0px" y="0px"
	 viewBox="0 0 425.2 133.8" style="enable-background:new 0 0 425.2 133.8;" xml:space="preserve">
<style type="text/css">
	.st0{enable-background:new    ;}
	.st1{font-family:'Courier-Bold';}
	.st2{font-size:12px;}
	.st3{letter-spacing:13;}
	.st4{fill:none;stroke:#000000;stroke-linecap:round;stroke-linejoin:round;stroke-miterlimit:10;}
	.st5{fill:none;stroke:#000000;stroke-linecap:round;stroke-linejoin:round;}
	.st6{fill:#F7931E;stroke:#000000;stroke-width:0.75;stroke-miterlimit:10;}
	.st7{fill:#35D4FF;stroke:#000000;stroke-width:0.75;stroke-miterlimit:10;}
	.st8{font-family:'MyriadPro-Regular';}
</style>
<text transform="matrix(1 0 0 1 42.8369 46.2705)" class="st0"><tspan x="0" y="0" class="st1 st2">A</tspan><tspan x="7.2" y="0" class="st1 st2 st3">	</tspan><tspan x="28.3" y="0" class="st1 st2">B</tspan><tspan x="35.5" y="0" class="st1 st2 st3">	</tspan><tspan x="56.7" y="0" class="st1 st2">C</tspan><tspan x="63.9" y="0" class="st1 st2 st3">	</tspan><tspan x="85" y="0" class="st1 st2">D</tspan><tspan x="0" y="14.4" class="st1 st2">1</tspan><tspan x="7.2" y="14.4" class="st1 st2 st3">	</tspan><tspan x="28.3" y="14.4" class="st1 st2">1</tspan><tspan x="35.5" y="14.4" class="st1 st2 st3">	</tspan><tspan x="56.7" y="14.4" class="st1 st2">u</tspan><tspan x="63.9" y="14.4" class="st1 st2 st3">	</tspan><tspan x="85" y="14.4" class="st1 st2">5</tspan><tspan x="0" y="28.8" class="st1 st2">3</tspan><tspan x="7.2" y="28.8" class="st1 st2 st3">	</tspan><tspan x="28.3" y="28.8" class="st1 st2">2</tspan><tspan x="35.5" y="28.8" class="st1 st2 st3">	</tspan><tspan x="56.7" y="28.8" class="st1 st2">v</tspan><tspan x="63.9" y="28.8" class="st1 st2 st3">	</tspan><tspan x="85" y="28.8" class="st1 st2">2</tspan><tspan x="0" y="43.2" class="st1 st2">2</tspan><tspan x="7.2" y="43.2" class="st1 st2 st3">	</tspan><tspan x="28.3" y="43.2" class="st1 st2">3</tspan><tspan x="35.5" y="43.2" class="st1 st2 st3">	</tspan><tspan x="56.7" y="43.2" class="st1 st2">u</tspan><tspan x="63.9" y="43.2" class="st1 st2 st3">	</tspan><tspan x="85" y="43.2" class="st1 st2">4</tspan></text>
<rect x="37.5" y="50.8" class="st4" width="107.5" height="45.2"/>
<rect x="37.5" y="34.8" class="st4" width="107.5" height="16"/>
<g>
	<g>
		<line class="st5" x1="244.6" y1="22.3" x2="244.6" y2="104.5"/>
		<g>
			<polygon points="241.4,28.2 242.4,28.6 244.6,22.4 246.9,28.6 247.8,28.2 244.6,19.5 			"/>
		</g>
	</g>
</g>
<g>
	<g>
		<line class="st5" x1="327.2" y1="104.5" x2="245" y2="104.5"/>
		<g>
			<polygon points="321.3,101.3 320.9,102.3 327.1,104.5 320.9,106.7 321.3,107.7 330,104.5 			"/>
		</g>
	</g>
</g>
<line class="st4" x1="267.2" y1="101" x2="267.2" y2="109"/>
<line class="st4" x1="288.8" y1="101" x2="288.8" y2="109"/>
<line class="st4" x1="310.5" y1="101" x2="310.5" y2="109"/>
<line class="st4" x1="240.6" y1="82.8" x2="248.6" y2="82.8"/>
<line class="st4" x1="240.6" y1="61.2" x2="248.6" y2="61.2"/>
<line class="st4" x1="240.6" y1="39.5" x2="248.6" y2="39.5"/>
<circle class="st6" cx="267.6" cy="82.6" r="7.1"/>
<circle class="st7" cx="310.3" cy="61.3" r="2.8"/>
<circle class="st6" cx="289.2" cy="39.2" r="5.7"/>
<text transform="matrix(1 0 0 1 330.4922 114.6611)" class="st8 st2">x</text>
<text transform="matrix(1 0 0 1 232.4922 25.6611)" class="st8 st2">y</text>
<rect x="346.5" y="23.5" class="st6" width="13" height="13"/>
<rect x="346.5" y="45.5" class="st7" width="13" height="13"/>
<text transform="matrix(1 0 0 1 370.5859 33.2173)" class="st8 st2">u</text>
<text transform="matrix(1 0 0 1 370.5859 54.2173)" class="st8 st2">v</text>
</svg>
